<svg xmlns="http://www.w3.org/2000/svg" viewBox="0 0 522.12 371"><defs><style>.cls-1{fill:#45425a;}.cls-2{fill:#5b618a;}.cls-3{fill:#5b507a;}.cls-4{fill:#4bb0b4;}.cls-5{fill:none;stroke:#a9fdac;stroke-miterlimit:10;stroke-width:4px;}.cls-6{fill:#6bff92;}.cls-7{fill:#dbf9b8;}</style></defs><g id="Layer_1" data-name="Layer 1"><rect class="cls-1" x="12" y="84" width="491" height="271" rx="17.61"/><rect class="cls-2" x="421" y="161" width="491" height="271" rx="17.61" transform="translate(-425.03 -75.71) rotate(-5.42)"/><rect class="cls-3" x="4" y="93" width="491" height="271" rx="17.61"/><rect class="cls-4" y="100" width="491" height="271" rx="17.61"/><path class="cls-5" d="M738.27,341.75h0s13.49,11.76,14.51,38.22C754,410.37,737,424.4,737,424.4h0s17-14,15.81-44.43C751.76,353.51,738.27,341.75,738.27,341.75Z" transform="translate(-400 -140)"/><path class="cls-5" d="M772.88,330.49h0s16.86,14.7,18,45.41c1.36,35.28-19.58,52.58-19.58,52.58h0s20.94-17.3,19.58-52.58C789.74,345.19,772.88,330.49,772.88,330.49Z" transform="translate(-400 -140)"/><path class="cls-5" d="M807.33,317.57h0s22.72,19.81,24.19,57.89c1.69,43.74-26.13,66.73-26.13,66.73h0s27.82-23,26.13-66.73C830.05,337.38,807.33,317.57,807.33,317.57Z" transform="translate(-400 -140)"/><path class="cls-5" d="M573.22,338.73h0S559.73,350.49,558.71,377c-1.17,30.39,15.81,44.42,15.81,44.42h0s-17-14-15.81-44.42C559.73,350.49,573.22,338.73,573.22,338.73Z" transform="translate(-400 -140)"/><path class="cls-5" d="M538.61,327.47h0s-16.86,14.7-18.05,45.41c-1.36,35.28,19.59,52.58,19.59,52.58h0s-20.95-17.3-19.59-52.58C521.75,342.17,538.61,327.47,538.61,327.47Z" transform="translate(-400 -140)"/><path class="cls-5" d="M504.15,314.55h0s-22.71,19.81-24.18,57.9c-1.69,43.73,26.13,66.72,26.13,66.72h0s-27.82-23-26.13-66.72C481.44,334.36,504.15,314.55,504.15,314.55Z" transform="translate(-400 -140)"/></g><g id="Layer_2" data-name="Layer 2"><path class="cls-6" d="M605.29,313H706.65v32.6h-9.18a89.68,89.68,0,0,0-4.07-12.74,25.39,25.39,0,0,0-4.27-7.12,13.36,13.36,0,0,0-4.82-3.47,22.17,22.17,0,0,0-7.73-1h-11.9v95.93a51,51,0,0,0,.61,8.81,14.1,14.1,0,0,0,1.88,5.2,8.5,8.5,0,0,0,3.42,3,30.91,30.91,0,0,0,6.74,2.11v4.59H634.52v-4.59a47.25,47.25,0,0,0,5-1.4,12,12,0,0,0,3.52-1.83,8.63,8.63,0,0,0,2.24-2.76,15.81,15.81,0,0,0,1.41-4.59,52.91,52.91,0,0,0,.52-8.53V321.24H635.36a25.85,25.85,0,0,0-7.26.85,11.66,11.66,0,0,0-5.29,3.51,25.53,25.53,0,0,0-4.45,7.59,85.3,85.3,0,0,0-3.8,12.41h-9.27Z" transform="translate(-400 -140)"/></g><g id="Layer_3" data-name="Layer 3"><path class="cls-7" d="M560.61,184.5l31.88-3,1,10.26-2.89.27a28,28,0,0,0-1.66-3.89,8.17,8.17,0,0,0-1.55-2.11,4.23,4.23,0,0,0-1.62-.94,6.89,6.89,0,0,0-2.47-.1l-3.74.36,2.87,30.17a16.14,16.14,0,0,0,.45,2.75,4.47,4.47,0,0,0,.74,1.58,2.75,2.75,0,0,0,1.17.84,9.85,9.85,0,0,0,2.18.46l.14,1.45-13.46,1.27-.14-1.44a15.69,15.69,0,0,0,1.52-.59,3.89,3.89,0,0,0,1-.68,2.61,2.61,0,0,0,.62-.94,4.77,4.77,0,0,0,.31-1.48,16.83,16.83,0,0,0-.09-2.7L574,185.84l-3.71.35a8.53,8.53,0,0,0-2.26.48,3.78,3.78,0,0,0-1.56,1.27,8,8,0,0,0-1.17,2.52,25.92,25.92,0,0,0-.82,4l-2.92.28Z" transform="translate(-400 -140)"/><path class="cls-7" d="M619.28,214.46a25.37,25.37,0,0,1-3.17,3.42,12.84,12.84,0,0,1-7.39,3.11q-6.06.57-9.51-2.77t-4.11-10.45a18.09,18.09,0,0,1,.84-7.9,12,12,0,0,1,4-5.61,12.46,12.46,0,0,1,6.55-2.46,12.28,12.28,0,0,1,5.16.46,8.55,8.55,0,0,1,3.58,2.26,12,12,0,0,1,2.34,3.94,27.22,27.22,0,0,1,1.4,6.42l-18.56,1.77.05.53a19,19,0,0,0,1.33,5.77,7.39,7.39,0,0,0,2.92,3.47,7.56,7.56,0,0,0,4.77.9,10.2,10.2,0,0,0,4.26-1.31,12.89,12.89,0,0,0,3.56-3.3ZM613.2,203a22.57,22.57,0,0,0-1.29-5.12,6.55,6.55,0,0,0-2.15-2.92,4.84,4.84,0,0,0-3.35-.77A5.79,5.79,0,0,0,601.8,197a13.11,13.11,0,0,0-1.48,7.15Z" transform="translate(-400 -140)"/><path class="cls-7" d="M631.36,194.52l.43.08a34.76,34.76,0,0,1,2.65-2.94,13.73,13.73,0,0,1,2-1.65,9.62,9.62,0,0,1,1.92-1,7.44,7.44,0,0,1,1.88-.42,7.93,7.93,0,0,1,4.93.9,7.13,7.13,0,0,1,3,3.91,39.9,39.9,0,0,1,3.26-3.64,11.83,11.83,0,0,1,2.65-1.9,8.33,8.33,0,0,1,3-.87,9.31,9.31,0,0,1,3.46.25,6.08,6.08,0,0,1,2.58,1.54,7.58,7.58,0,0,1,1.73,2.86,20.72,20.72,0,0,1,.92,4.79l1.05,11.1a21.49,21.49,0,0,0,.44,3.08,4.15,4.15,0,0,0,.55,1.29,2.43,2.43,0,0,0,.92.73,8,8,0,0,0,2,.51l.14,1.45-11.58,1.1-.14-1.45a9.89,9.89,0,0,0,1.59-.77,2.33,2.33,0,0,0,.77-.82,3.79,3.79,0,0,0,.4-1.51,17.56,17.56,0,0,0-.1-3l-.73-7.72c-.16-1.67-.33-3-.52-4.12a15.12,15.12,0,0,0-.66-2.57,4.67,4.67,0,0,0-1.82-2.36,3.75,3.75,0,0,0-1.24-.53,5.48,5.48,0,0,0-1.82-.07,5.27,5.27,0,0,0-2.15.68,8.92,8.92,0,0,0-2.06,1.8,7.62,7.62,0,0,0-1.51,2.42,6.25,6.25,0,0,0-.27,2.72l1,10.75a20.31,20.31,0,0,0,.44,3.08,3.92,3.92,0,0,0,.55,1.29,2.45,2.45,0,0,0,.92.73,7.72,7.72,0,0,0,1.95.51l.14,1.44-11.58,1.1-.14-1.44a10.65,10.65,0,0,0,1.59-.78,2.39,2.39,0,0,0,.77-.81,3.69,3.69,0,0,0,.39-1.51,16.36,16.36,0,0,0-.09-3l-.73-7.72c-.17-1.75-.35-3.17-.56-4.26a13.27,13.27,0,0,0-.7-2.61,5,5,0,0,0-1-1.54,4.35,4.35,0,0,0-1.08-.85,3.72,3.72,0,0,0-1.22-.38,6.65,6.65,0,0,0-1.55,0,4.83,4.83,0,0,0-2.22.76,10,10,0,0,0-2,1.78,7.94,7.94,0,0,0-1.46,2.31,5.4,5.4,0,0,0-.33,2.47l1.05,11q.16,1.68.33,2.55a6.22,6.22,0,0,0,.41,1.36,2.3,2.3,0,0,0,.57.76,2.94,2.94,0,0,0,.89.51,7.9,7.9,0,0,0,1.69.42l.14,1.45-11.55,1.09-.14-1.44a9.94,9.94,0,0,0,1.55-.77,2.63,2.63,0,0,0,.77-.82,3.3,3.3,0,0,0,.39-1.49,18.35,18.35,0,0,0-.11-3l-1.22-12.85c-.12-1.26-.23-2.27-.34-3a4.75,4.75,0,0,0-.59-1.8,2.25,2.25,0,0,0-1.17-.93,8.53,8.53,0,0,0-2.11-.38l-.15-1.56,6.87-.92,1.8-.17Z" transform="translate(-400 -140)"/><path class="cls-7" d="M683.76,212.5l.59,6.22a24.15,24.15,0,0,0,.4,2.84,4,4,0,0,0,.62,1.45,2.58,2.58,0,0,0,1,.8,7.73,7.73,0,0,0,2.11.46l.14,1.44-12,1.14-.14-1.44a11.77,11.77,0,0,0,1.67-.77,2.32,2.32,0,0,0,.93-1,4.16,4.16,0,0,0,.31-1.68,23.19,23.19,0,0,0-.14-2.75l-2.4-25.28c-.13-1.42-.25-2.42-.34-3a6.8,6.8,0,0,0-.38-1.46,2.6,2.6,0,0,0-.61-.93,2.75,2.75,0,0,0-1-.56,9.93,9.93,0,0,0-2-.35l-.15-1.56,6.9-.92,1.79-.17.08,4.84.45.07a36.45,36.45,0,0,1,2.63-3,12.7,12.7,0,0,1,2.06-1.6,10.33,10.33,0,0,1,2.11-1,10.09,10.09,0,0,1,2.2-.44,8.68,8.68,0,0,1,7.82,2.93q3,3.39,3.61,10.4a20.25,20.25,0,0,1-.69,8.32,10.64,10.64,0,0,1-3.82,5.38,12.9,12.9,0,0,1-6.54,2.3,19.71,19.71,0,0,1-4,0A17.36,17.36,0,0,1,683.76,212.5Zm-.92-9.72a20.85,20.85,0,0,0,.76,4.32,5.46,5.46,0,0,0,1.49,2.38,5.6,5.6,0,0,0,2.26,1.22,9.25,9.25,0,0,0,3.27.17,5.9,5.9,0,0,0,5.08-3.47c1-2.09,1.34-5.06,1-8.91q-1.09-11.55-7.84-10.91a7.32,7.32,0,0,0-2.8.79,8.05,8.05,0,0,0-2.21,1.89,7.49,7.49,0,0,0-1.45,2.38,5.49,5.49,0,0,0-.27,2.36Z" transform="translate(-400 -140)"/><path class="cls-7" d="M706,182.86l8.4-.8,1.42,15a39.28,39.28,0,0,0,.76,5.22,7.61,7.61,0,0,0,1.06,2.63,4.47,4.47,0,0,0,1.64,1.39,5.08,5.08,0,0,0,2.74.37,5.58,5.58,0,0,0,2.11-.65,9,9,0,0,0,2.15-1.77,7.41,7.41,0,0,0,1.61-2.36,5.72,5.72,0,0,0,.3-2.59l-1.05-11.05a22.67,22.67,0,0,0-.33-2.52,5.27,5.27,0,0,0-.42-1.35,2.92,2.92,0,0,0-.57-.79,2.46,2.46,0,0,0-.85-.51,8,8,0,0,0-1.72-.4l-.13-1.45,8.4-.8,1.91,20.13c.14,1.51.27,2.6.39,3.26a4.63,4.63,0,0,0,.54,1.56,2.37,2.37,0,0,0,1,.87,8.32,8.32,0,0,0,2.28.48l.14,1.53-6.72.94-1.79.17-.29-4.85-.45-.08a19.62,19.62,0,0,1-4.3,4.34,9.26,9.26,0,0,1-4.35,1.66,8.39,8.39,0,0,1-4.52-.65,6.39,6.39,0,0,1-2.89-2.92,16.4,16.4,0,0,1-1.42-5.85L710,189.88a19.92,19.92,0,0,0-.52-3.39,2.89,2.89,0,0,0-.88-1.4,5.59,5.59,0,0,0-2.46-.79Z" transform="translate(-400 -140)"/><path class="cls-7" d="M760.42,184.21l-2.82.26a9.14,9.14,0,0,0-1.8-2.63,4.79,4.79,0,0,0-2.14-1.24,7.91,7.91,0,0,0-2.78-.16,5.9,5.9,0,0,0-3.65,1.47,3.62,3.62,0,0,0-1.11,3.15,4.06,4.06,0,0,0,.77,2.18,5.68,5.68,0,0,0,1.89,1.49,30.89,30.89,0,0,0,4.35,1.64,29.32,29.32,0,0,1,4.87,1.95,8.65,8.65,0,0,1,2.8,2.29,6.27,6.27,0,0,1,1.26,3.36,8.82,8.82,0,0,1-.43,4,6.76,6.76,0,0,1-2,2.8,9.64,9.64,0,0,1-3.3,1.77,20.08,20.08,0,0,1-4.3.86,31.46,31.46,0,0,1-4.84.09,46.48,46.48,0,0,1-4.63-.53l-.58-6.16,2.89-.27a7.57,7.57,0,0,0,2.73,3.71A6.91,6.91,0,0,0,752,205a10.08,10.08,0,0,0,2.05-.42,5.15,5.15,0,0,0,1.74-.91,3.71,3.71,0,0,0,1.14-1.52,4.68,4.68,0,0,0,.26-2.25,4.55,4.55,0,0,0-.82-2.39,5.68,5.68,0,0,0-2-1.55,34.51,34.51,0,0,0-4.56-1.69,27.91,27.91,0,0,1-4.51-1.77,8.54,8.54,0,0,1-2.79-2.27,6.23,6.23,0,0,1-1.25-3.33,6.94,6.94,0,0,1,.91-4.32,8.23,8.23,0,0,1,3.53-3.09,16.47,16.47,0,0,1,5.72-1.49,34.69,34.69,0,0,1,3.77-.16c1.22,0,2.76.12,4.62.32Z" transform="translate(-400 -140)"/></g></svg>